<svg width="142" height="21" viewBox="0 0 142 21" fill="none" xmlns="http://www.w3.org/2000/svg">
<path d="M19.8012 10.3726C19.9759 11.8681 19.2351 12.0498 17.4671 12.8535C11.6739 15.4741 12.3936 11.2811 11.7088 8.27615C11.604 7.8289 11.4293 7.39565 11.3664 6.94141C11.2126 5.92811 11.2476 4.54442 9.88488 4.66322C8.6829 4.76805 8.64796 6.11678 8.54314 7.14405C8.5082 7.48648 8.45229 7.82892 8.38241 8.16436C7.01272 14.4329 7.0267 14.3909 1.03779 12.7556C-0.234062 12.4062 0.220172 11.5397 0.164266 10.8898C-0.317921 5.32012 3.93092 0.547123 9.57041 0.232651C15.0841 -0.0748341 19.8081 4.46055 19.8012 10.3726Z" fill="#C7E8C5"/>
<path d="M139.217 8.30418C136.659 11.3138 134.011 11.4023 131.271 8.56974C131.271 10.9178 131.264 12.9444 131.271 14.971C131.271 15.9284 131.376 16.8299 129.916 16.788C128.413 16.746 128.686 15.7187 128.686 14.8522C128.665 11.7284 128.658 8.60467 128.686 5.4809C128.693 4.75412 128.301 3.73383 129.517 3.53816C130.552 3.37743 131.614 3.27961 132.299 4.38376C133.193 5.82335 134.116 7.24895 135.241 9.03096C136.317 7.29088 137.204 5.87225 138.078 4.43966C138.742 3.35647 139.783 3.37044 140.831 3.49623C142.278 3.67094 141.824 4.83099 141.831 5.65561C141.872 8.66057 141.852 11.6725 141.845 14.6845C141.845 15.7118 142.047 16.8369 140.377 16.781C138.819 16.7321 139.231 15.6279 139.217 14.7963C139.175 12.8536 139.203 10.9108 139.203 8.2972L139.217 8.30418Z" fill="#C7E8C5"/>
<path d="M25.2365 10.1072C25.2365 5.27599 27.6544 3.07002 32.4902 3.48931C35.4463 3.74089 36.9697 6.061 35.3624 8.5069C34.4609 9.88359 34.9571 10.2679 35.6419 11.2044C36.9697 13.0283 36.5504 14.8662 34.7125 15.9564C31.9591 17.5847 28.8284 16.5993 25.8654 16.6692C25.0198 16.6902 25.2574 15.6 25.2435 14.9571C25.2155 13.3428 25.2365 11.7215 25.2365 10.1072Z" fill="#C7E8C5"/>
<path d="M83.0036 9.9744C83.0036 9.74379 82.9198 9.46425 83.0176 9.28954C84.0588 7.47957 80.7604 4.02037 84.8275 3.53817C91.4104 2.75549 94.653 4.70524 95.3169 9.17075C95.8549 12.7697 93.5978 15.7607 89.7053 16.5923C83.6186 17.8921 83.0036 17.2911 83.0036 9.96741V9.9744Z" fill="#C7E8C5"/>
<path d="M65.6852 9.87649C65.7551 13.9367 62.9458 16.8997 58.9416 16.9696C54.9094 17.0395 51.8066 14.1743 51.6878 10.2678C51.569 6.53609 54.7556 3.18171 58.5572 3.03496C62.3378 2.8882 65.6153 6.03993 65.6852 9.88349V9.87649Z" fill="#C7E8C5"/>
<path d="M126.373 10.1628C126.352 14.0204 123.452 16.9205 119.573 16.9624C115.534 17.0044 112.396 14.0274 112.361 10.1209C112.326 6.33325 115.611 3.05574 119.454 3.03477C123.354 3.01381 126.401 6.15156 126.373 10.1628Z" fill="#C7E8C5"/>
<path d="M49.4743 16.5151C46.5812 17.6891 45.8055 15.5228 44.8271 13.7198C44.338 12.8253 44.0724 11.6932 42.6818 11.9238C41.0116 12.1963 41.8362 13.5381 41.7034 14.4186C41.5427 15.4878 42.0528 16.9064 40.1241 16.7527C38.3351 16.6129 39.0758 15.2292 39.0479 14.3697C38.957 11.4835 39.1317 8.58341 38.971 5.69724C38.8662 3.79643 39.551 3.23037 41.333 3.43303C42.3603 3.55183 43.4225 3.50991 44.4568 3.44702C46.6021 3.32123 48.4051 3.85931 49.2856 6.00471C50.1312 8.07324 49.649 9.99504 47.7482 11.1132C46.5183 11.8399 47.1263 12.2802 47.5036 12.9511C48.1745 14.1391 48.8314 15.3341 49.4743 16.5011V16.5151Z" fill="#C7E8C5"/>
<path d="M80.2839 16.4104C77.1323 18.2972 76.4334 13.9505 73.4285 14.0973C70.6682 14.2301 69.9414 18.1994 66.7827 16.3894C68.2223 12.6088 69.7387 8.78618 71.1224 4.92166C71.5696 3.66377 72.3733 3.48906 73.5054 3.44015C74.6864 3.39123 75.4621 3.69172 75.9023 4.87973C77.3349 8.74425 78.8304 12.5878 80.2909 16.4104H80.2839Z" fill="#C7E8C5"/>
<path d="M104.926 16.9629C101.418 17.0188 98.6926 15.111 97.7841 12.1619C96.8826 9.2408 98.0427 5.9563 100.649 4.27212C103.389 2.50409 106.149 2.68577 108.735 4.54465C109.252 4.91503 110.691 5.30638 109.594 6.59921C108.784 7.54962 108.287 7.64048 107.197 6.72502C105.248 5.08976 103.067 5.25746 101.334 7.20719C99.7408 8.99619 99.6919 11.0857 101.243 12.8677C102.892 14.7545 105.038 15.076 107.099 13.4897C108.064 12.7419 108.665 12.3646 109.566 13.5036C110.761 15.0131 109.091 15.2717 108.518 15.7748C107.463 16.7043 106.058 17.0048 104.926 16.9559V16.9629Z" fill="#C7E8C5"/>
<path d="M10.2827 9.89038C10.6111 11.3789 10.7369 12.5389 11.1213 13.6081C12.0367 16.1658 13.7628 16.082 15.8174 14.9499C16.5791 14.5306 17.5784 13.706 18.2912 14.6843C19.018 15.6906 17.795 16.2777 17.229 16.8856C13.1199 21.2953 5.81722 21.0507 2.28817 16.4174C1.89683 15.9003 1.14909 15.4041 1.70815 14.6634C1.88984 14.4188 2.56071 14.3489 2.93108 14.4607C4.60826 14.9708 6.15265 16.6061 8.03947 15.0407C9.47904 13.8457 8.80817 11.7283 10.2757 9.89735L10.2827 9.89038Z" fill="#C7E8C5"/>
<path d="M31.0669 14.37C29.18 14.4539 27.9292 14.6984 27.9641 12.6229C27.999 10.5334 29.4037 11.2393 30.375 11.2183C31.556 11.1834 33.2961 10.7151 33.4568 12.4971C33.6385 14.5237 31.8216 14.3001 31.0739 14.377L31.0669 14.37Z" fill="#6BAD3D"/>
<path d="M30.2555 5.69093C31.751 5.5931 33.1417 5.63503 33.1347 7.13052C33.1207 9.04531 31.4575 8.82169 30.1088 8.88459C28.8509 8.94748 27.9774 8.86361 27.9564 7.16545C27.9284 4.84534 29.6056 5.98444 30.2555 5.69093Z" fill="#6BAD3D"/>
<path d="M87.5887 5.70431C90.6285 5.74624 92.3966 7.09499 92.5433 9.79246C92.697 12.5179 91.0339 13.9435 88.3294 14.2929C86.4496 14.5305 85.5132 14.0483 85.7577 11.9518C85.9185 10.5821 85.8835 9.17052 85.7577 7.79382C85.618 6.13061 86.1561 5.36189 87.5817 5.71131L87.5887 5.70431Z" fill="#6BAD3D"/>
<path d="M54.4776 10.023C54.4916 7.54217 56.4483 5.54354 58.8732 5.71125C61.4309 5.89295 62.8565 7.43038 63.0522 9.93218C63.2338 12.3082 61.1514 14.4326 58.7963 14.4815C56.4693 14.5305 54.4636 12.455 54.4776 10.016V10.023Z" fill="#6BAD3D"/>
<path d="M114.996 10.0795C115.367 7.52181 116.722 5.76774 119.406 5.74677C122.082 5.72581 123.767 7.43095 123.795 10.0306C123.822 12.6442 122.089 14.3773 119.476 14.4192C116.834 14.4612 115.395 12.7071 114.996 10.0795Z" fill="#6BAD3D"/>
<path d="M43.2614 9.74353C42.276 9.90426 41.5493 9.4011 41.5423 7.668C41.5353 5.92792 42.276 5.55056 43.8135 5.64141C45.267 5.73225 46.7695 5.80913 46.7904 7.63307C46.8114 9.47099 45.2391 9.5828 43.2614 9.74353Z" fill="#6BAD3D"/>
<path d="M75.6723 11.8334H71.6401C71.9546 9.93257 72.5207 8.24139 73.6388 6.45239C74.3376 8.2973 74.9525 9.93257 75.6723 11.8334Z" fill="#6BAD3D"/>
</svg>
