<svg width="50" height="29" viewBox="0 0 50 29" fill="none" xmlns="http://www.w3.org/2000/svg">
<path d="M0 21.9267C0.227864 21.0713 0.455728 20.2125 1.01662 19.4938C2.5065 17.5868 4.49417 17.0083 6.80786 17.3764C8.0804 17.5798 8.07689 17.6113 8.07689 18.9084C8.07689 19.2659 8.06637 19.6235 8.07689 19.9811C8.09091 20.3457 7.99276 20.4473 7.62467 20.2931C6.74827 19.9355 5.83682 19.8198 4.91484 20.0722C3.54065 20.4438 2.76942 21.6673 2.92717 23.1747C3.06039 24.4437 4.14712 25.4498 5.48976 25.548C6.22944 25.6041 6.9516 25.5234 7.63168 25.229C8.00327 25.0642 8.08741 25.1939 8.0804 25.548C8.06637 26.1965 8.06988 26.8485 8.0804 27.4971C8.0804 27.7144 8.04183 27.8652 7.79995 27.9318C5.85434 28.4751 3.97885 28.3805 2.26111 27.2272C1.04817 26.4139 0.322515 25.257 0.0911462 23.8022C0.0806294 23.7251 0.0315511 23.655 0.00350634 23.5813V21.9232L0 21.9267Z" fill="#C7E8C5"/>
<path d="M0 7.78523C0.266425 7.49426 0.473256 7.13669 0.935994 7.09813C1.61959 7.04555 2.1279 7.46973 2.14893 8.17786C2.16996 8.92455 2.16646 9.67124 2.14893 10.4179C2.13841 10.9333 1.81239 11.375 1.39172 11.4906C0.879905 11.6344 0.487278 11.4766 0.143729 10.9893C0.0981566 10.9262 0.0455727 10.8666 0 10.8071C0 9.80095 0 8.79133 0 7.78523Z" fill="#C7E8C5"/>
<path d="M49.93 22.7751C49.9264 25.86 47.448 28.2789 44.307 28.2649C41.1695 28.2508 38.7226 25.832 38.7261 22.7506C38.7296 19.6726 41.194 17.2573 44.335 17.2538C47.469 17.2538 49.937 19.6867 49.9335 22.7751H49.93Z" fill="#C7E8C5"/>
<path d="M35.974 19.0488C35.974 19.3889 35.967 19.7289 35.974 20.069C35.981 20.3845 35.8689 20.4861 35.5639 20.3494C34.6664 19.9393 33.734 19.8201 32.7769 20.076C31.3957 20.4441 30.6455 21.6675 30.8138 23.231C30.947 24.4545 32.0337 25.4465 33.3203 25.5412C34.06 25.5973 34.7681 25.4921 35.4587 25.2222C35.9355 25.0364 35.9705 25.0785 35.96 25.6008C35.946 26.2318 35.9425 26.8663 35.9495 27.5008C35.9495 27.7217 35.8969 27.8689 35.662 27.9355C33.7515 28.4754 31.897 28.3983 30.2073 27.2905C28.5422 26.2002 27.8305 24.5842 27.8621 22.6035C27.9182 19.0138 31.1363 16.7176 34.6805 17.3662C35.5265 17.5204 35.9495 18.0322 35.9495 18.9016C35.9495 18.9507 35.9495 18.9998 35.9495 19.0488C35.9565 19.0488 35.9635 19.0488 35.974 19.0488Z" fill="#C7E8C5"/>
<path d="M20.2899 25.9126C20.8087 25.8985 21.3311 25.8915 21.8253 25.7127C22.1584 25.5901 22.4283 25.3937 22.4564 24.9906C22.4879 24.5699 22.253 24.3 21.913 24.1528C21.3977 23.9284 20.8508 23.7777 20.3285 23.5638C19.3259 23.1572 18.453 22.6138 18.1199 21.4815C17.5836 19.6621 18.6528 17.8742 20.5037 17.4325C21.7763 17.1311 23.0173 17.3168 24.2617 17.5482C24.451 17.5833 24.5422 17.6919 24.5422 17.8848C24.5422 18.4527 24.5527 19.0206 24.5527 19.592C24.5527 19.8444 24.4195 19.8689 24.1951 19.8093C23.501 19.6305 22.7999 19.5254 22.0778 19.5815C21.8464 19.599 21.6325 19.6446 21.4187 19.7252C21.0997 19.8444 20.8192 20.0126 20.8017 20.3948C20.7842 20.7699 21.0261 21.0153 21.3311 21.1415C21.9586 21.4044 22.6141 21.5937 23.2416 21.8531C25.1837 22.6594 25.8883 24.7803 24.7736 26.526C24.104 27.5742 23.0278 27.9879 21.8534 28.1561C21.2014 28.2473 20.5353 28.3384 19.8762 28.1772C20.1076 28.0124 20.1532 27.7951 20.1602 27.5146C20.1707 26.9818 20.0059 26.4279 20.2899 25.9126Z" fill="#C7E8C5"/>
<path d="M11.7118 22.7575C11.7118 21.1485 11.7223 19.5429 11.7048 17.9338C11.7012 17.5482 11.8169 17.415 12.2061 17.4325C12.788 17.4606 13.3734 17.4466 13.9588 17.436C14.2744 17.4325 14.4251 17.5307 14.4216 17.8848C14.4111 21.1344 14.4111 24.3806 14.4216 27.6303C14.4216 27.9914 14.2708 28.0755 13.9553 28.0685C13.3699 28.058 12.7845 28.044 12.2025 28.072C11.8169 28.0931 11.6977 27.9704 11.7012 27.5777C11.7223 25.9687 11.7083 24.3631 11.7083 22.754L11.7118 22.7575Z" fill="#C7E8C5"/>
<path d="M37.4429 13.5274C36.6156 13.9375 35.8373 13.4748 35.7988 12.5283C35.7707 11.8973 35.7918 11.2628 35.7918 10.6283C35.7918 7.54334 35.7918 4.45492 35.7918 1.36999C35.7918 0.609279 36.0687 0.209641 36.6717 0.0378667C36.9626 -0.0462676 37.208 0.0133275 37.4429 0.181596C36.9696 2.11318 37.2781 4.07982 37.2185 6.02893C37.1695 7.64851 37.2045 9.2716 37.208 10.8947C37.208 11.7781 37.1344 12.672 37.4394 13.5309L37.4429 13.5274Z" fill="#C7E8C5"/>
<path d="M13.5488 13.5201C12.8722 13.8952 12.1781 13.5973 11.9783 12.8471C11.9257 12.6543 11.9082 12.4685 11.9082 12.2722C11.9082 8.65788 11.9082 5.04011 11.9082 1.42584C11.9082 1.06827 11.9398 0.717714 12.1816 0.423244C12.5567 -0.032483 13.03 -0.116617 13.5488 0.191875C13.0335 4.23383 13.4612 8.29681 13.3104 12.3458C13.2964 12.7699 13.5944 13.103 13.5488 13.5201Z" fill="#C7E8C5"/>
<path d="M13.5493 13.5202C13.1777 13.082 13.1567 12.5631 13.1602 12.0163C13.1742 8.57728 13.1742 5.13829 13.1602 1.6993C13.1602 1.15243 13.1812 0.633599 13.5493 0.191895C14.0086 0.388208 14.1172 0.798362 14.1207 1.22605C14.1313 4.97703 14.1313 8.72802 14.1207 12.479C14.1207 12.9067 13.9981 13.3133 13.5493 13.5167V13.5202Z" fill="#C7E8C5"/>
<path d="M37.4432 13.5272C37.1593 13.1696 37.0471 12.777 37.0506 12.3108C37.0646 8.68947 37.0681 5.06469 37.0506 1.44341C37.0506 0.959638 37.1558 0.552989 37.4468 0.181396C37.899 0.416271 37.9971 0.843954 37.9971 1.28916C38.0041 4.99808 38.0041 8.71051 37.9971 12.4194C37.9971 12.8646 37.8955 13.2923 37.4432 13.5272Z" fill="#C7E8C5"/>
<path d="M31.53 11.3084C30.8464 11.8693 29.8578 11.3155 29.8508 10.4916C29.8297 8.70729 29.8227 6.92294 29.8508 5.1386C29.8648 4.28323 30.7377 3.85555 31.4914 4.28674C31.0006 6.33751 31.3652 8.41633 31.2635 10.4811C31.2495 10.7896 31.4879 11.0175 31.53 11.3084Z" fill="#C7E8C5"/>
<path d="M7.60044 11.3678C6.91685 11.8025 5.97385 11.3433 5.95982 10.4108C5.93528 8.67554 5.92827 6.94027 5.96333 5.205C5.98086 4.30055 6.82571 3.85885 7.60745 4.27952C7.11667 6.25317 7.48476 8.26188 7.35855 10.2495C7.33402 10.6597 7.64251 10.9717 7.60044 11.3678Z" fill="#C7E8C5"/>
<path d="M19.5054 11.3891C18.7167 11.7221 18.0857 11.3856 17.9314 10.5688C17.8473 10.1166 17.8928 9.66434 17.8893 9.21562C17.8788 7.95361 17.8718 6.69159 17.8893 5.42958C17.9034 4.34986 18.6325 3.83804 19.5194 4.2482C19.565 4.33934 19.5825 4.44451 19.53 4.52864C19.2109 5.02994 19.267 5.58733 19.267 6.13771C19.267 7.30507 19.2705 8.47594 19.267 9.64331C19.267 10.1341 19.2741 10.6179 19.5124 11.0631C19.5685 11.1647 19.586 11.2804 19.5089 11.3856L19.5054 11.3891Z" fill="#C7E8C5"/>
<path d="M43.3961 11.3819C42.5407 11.764 41.794 11.3223 41.7695 10.3443C41.7309 8.65809 41.7274 6.96839 41.7695 5.2822C41.794 4.30414 42.6529 3.81686 43.3926 4.29362C42.9264 6.0955 43.2489 7.92892 43.1577 9.74482C43.1332 10.2181 43.1437 10.6878 43.4066 11.112C43.4592 11.1961 43.4662 11.2978 43.3961 11.3854V11.3819Z" fill="#C7E8C5"/>
<path d="M49.923 9.25761C49.923 9.68179 49.937 10.0218 49.923 10.3619C49.8914 11.042 49.4462 11.5327 48.8713 11.5433C48.2683 11.5538 47.8021 11.1261 47.76 10.4425C47.7074 9.63621 47.6724 8.82642 47.7846 8.02013C47.8582 7.49079 48.2473 7.12971 48.7416 7.10167C49.306 7.07012 49.6951 7.34706 49.8564 7.89393C49.9966 8.37069 49.8844 8.86148 49.923 9.25761Z" fill="#C7E8C5"/>
<path d="M23.8873 9.29612C23.8873 8.907 23.8697 8.51437 23.8908 8.12525C23.9223 7.5328 24.3465 7.11914 24.9109 7.10162C25.4893 7.08409 25.9976 7.49424 26.0222 8.08669C26.0572 8.89648 26.0537 9.71328 26.0222 10.5231C25.9976 11.0945 25.4963 11.5432 24.9705 11.5432C24.3781 11.5432 23.9118 11.0945 23.8838 10.4635C23.8662 10.0744 23.8838 9.68524 23.8838 9.29261H23.8908L23.8873 9.29612Z" fill="#C7E8C5"/>
<path d="M43.3954 11.3821C42.9537 10.8353 42.9993 10.1867 43.0063 9.5417C43.0168 8.29371 43.0239 7.04571 43.0028 5.79772C42.9923 5.25085 43.0239 4.73202 43.3954 4.29382C43.8617 4.48313 43.9634 4.89679 43.9669 5.32096C43.9809 6.99313 43.9809 8.6653 43.9669 10.334C43.9669 10.7687 43.8196 11.1613 43.3954 11.3821Z" fill="#C7E8C5"/>
<path d="M19.5044 11.3891C19.1048 10.7756 19.0978 10.0885 19.1118 9.39091C19.1328 8.3217 19.1223 7.2525 19.1153 6.1868C19.1153 5.51372 19.0452 4.82663 19.5184 4.25171C19.9461 4.4936 20.0899 4.88973 20.0899 5.35247C20.0934 7.0036 20.0934 8.65123 20.0899 10.3024C20.0899 10.7616 19.9391 11.1577 19.5079 11.3926L19.5044 11.3891Z" fill="#C7E8C5"/>
<path d="M7.59988 11.3681C7.22128 10.9299 7.20726 10.4076 7.21427 9.8642C7.2318 8.4234 7.2353 6.97909 7.21427 5.53829C7.20726 5.05803 7.31944 4.64787 7.6104 4.27979C7.96096 4.46558 8.11521 4.77407 8.12572 5.15268C8.18181 6.93352 8.18532 8.71787 8.12572 10.4987C8.1117 10.8773 7.94343 11.1788 7.60339 11.3681H7.59988Z" fill="#C7E8C5"/>
<path d="M31.5299 11.3086C31.2214 11.1052 31.1022 10.8178 31.1058 10.4462C31.1163 8.77753 31.1233 7.10536 31.1023 5.4367C31.0952 4.99149 31.1689 4.60587 31.4949 4.28687C31.863 4.48668 32.0032 4.81621 32.0067 5.21234C32.0102 6.94761 32.0137 8.68288 32.0067 10.4146C32.0067 10.7862 31.898 11.1158 31.5334 11.3051L31.5299 11.3086Z" fill="#C7E8C5"/>
<path d="M20.2901 25.9126C20.3146 26.5752 20.2305 27.2377 20.3391 27.9003C20.4093 28.3244 20.0377 28.0931 19.8764 28.1737C19.3576 28.1947 18.8493 28.1001 18.341 28.0195C18.1306 27.9879 17.9974 27.9073 18.0044 27.6514C18.0219 27.0554 18.0079 26.456 18.0114 25.86C18.0114 25.6707 18.0254 25.4779 18.3024 25.562C18.9509 25.7654 19.6275 25.7934 20.2866 25.9091L20.2901 25.9126Z" fill="#C7E8C5"/>
<path d="M44.3317 25.534C42.7822 25.534 41.5622 24.293 41.5833 22.7401C41.6008 21.2011 42.8102 19.9812 44.3246 19.9742C45.8671 19.9671 47.1011 21.2046 47.1011 22.7541C47.1011 24.3141 45.8846 25.534 44.3317 25.5305V25.534Z" fill="#6BAD3D"/>
</svg>
