<svg width="73" height="24" viewBox="0 0 73 24" fill="none" xmlns="http://www.w3.org/2000/svg">
<path d="M43.9503 15.5851C43.8046 15.6196 43.7278 15.6886 43.6435 15.7423C39.8274 18.2007 36.0114 20.6592 32.1915 23.1099C31.7658 23.386 31.9269 23.386 31.505 23.1022C27.597 20.4636 23.6927 17.8211 19.7885 15.1785C19.7041 15.121 19.6274 15.0481 19.5047 15.0213C19.4126 15.1402 19.3819 15.2936 19.3436 15.4355C19.1211 16.2486 18.7414 16.9965 18.3004 17.6983C17.8057 18.4807 17.215 19.1903 16.494 19.7962C15.6541 20.5019 14.7183 21.0158 13.7097 21.4224C13.027 21.6947 12.3136 21.8366 11.5888 21.9555C10.7604 22.0897 9.92813 22.0936 9.09205 22.0936C6.49562 22.0936 3.89918 22.0936 1.30274 22.0936C0.896208 22.0936 0.93456 22.1281 0.93456 21.7292C0.93456 15.3013 0.93456 8.86951 0.93456 2.44158C0.93456 2.0197 0.907714 2.06188 1.32192 2.06188C4.0104 2.06188 6.69888 2.06188 9.38737 2.06188C10.1084 2.06188 10.8371 2.06572 11.5428 2.19228C12.4095 2.34569 13.2686 2.54897 14.0893 2.91332C15.704 3.62668 17.0424 4.66604 18.0396 6.11961C18.5228 6.8253 18.9255 7.57702 19.2017 8.39393C19.2515 8.53967 19.3052 8.68158 19.3551 8.83115C19.5085 8.80814 19.6082 8.70842 19.7156 8.63939C23.639 6.11961 27.5624 3.596 31.4782 1.06471C31.7236 0.907466 31.8809 0.9113 32.1187 1.07622C33.415 1.96984 34.7266 2.84045 36.0344 3.71873C36.1111 3.76858 36.184 3.82611 36.3029 3.91049C33.0851 5.99305 29.8866 8.04492 26.6995 10.1045C26.7033 10.2234 26.7992 10.2425 26.8606 10.2847C27.2364 10.5379 27.62 10.7795 27.9881 11.0441C28.1492 11.1592 28.2604 11.1477 28.4215 11.0441C30.366 9.80148 32.3104 8.56652 34.2587 7.33156C35.4246 6.59135 36.5905 5.85498 37.7488 5.11093C37.8868 5.02272 37.9865 4.99971 38.1323 5.09943C39.4286 5.97387 40.7325 6.84064 42.0327 7.70742C42.0557 7.72276 42.0787 7.74577 42.1324 7.79179C38.9377 9.9012 35.7506 12.0029 32.5674 14.1047C32.5789 14.2159 32.6709 14.2351 32.7361 14.2734C33.1388 14.5227 33.5492 14.7605 33.9442 15.0175C34.0976 15.1172 34.2089 15.1095 34.3584 15.0136C35.5358 14.2542 36.7171 13.5064 37.8983 12.7546C39.8274 11.5274 41.7527 10.2962 43.6857 9.07661C43.8889 8.94621 43.9465 8.80815 43.9465 8.57803C43.9388 6.51848 43.9426 4.4551 43.9426 2.39556C43.9426 2.04654 43.9043 2.05421 44.2724 2.05421C46.4585 2.05421 48.6408 2.05421 50.8268 2.05421C50.869 2.05421 50.9112 2.05421 50.9496 2.05421C51.0915 2.04271 51.1643 2.0964 51.1528 2.24598C51.1452 2.32652 51.1528 2.4109 51.1528 2.49144C51.1528 6.76778 51.1528 11.0441 51.1528 15.3204C51.1528 15.7538 51.1145 15.6925 51.5363 15.6925C53.4003 15.6925 55.2642 15.6925 57.1319 15.6925C57.2125 15.6925 57.2968 15.6963 57.3774 15.6925C57.4963 15.6848 57.55 15.7308 57.5385 15.8536C57.5346 15.9264 57.5385 15.9993 57.5385 16.0683C57.5385 17.9553 57.5385 19.8384 57.5385 21.7254C57.5385 21.7752 57.5308 21.8289 57.5385 21.8788C57.5615 22.0514 57.4733 22.0936 57.3237 22.082C57.2738 22.0782 57.2201 22.082 57.1703 22.082C52.8825 22.082 48.5986 22.082 44.3108 22.082C43.8889 22.082 43.9426 22.1127 43.9426 21.7215C43.9426 19.7962 43.9426 17.8671 43.9426 15.9418V15.5774L43.9503 15.5851Z" fill="#C7E8C5"/>
<path d="M59.3422 12.0947C59.3422 8.89221 59.3422 5.68591 59.3422 2.48345C59.3422 2.41058 59.3461 2.33771 59.3422 2.26868C59.3307 2.12677 59.3768 2.05007 59.5302 2.06541C59.58 2.06925 59.6337 2.06541 59.6836 2.06541C61.8658 2.06541 64.0519 2.06541 66.2341 2.06541C66.6023 2.06541 66.5755 2.02706 66.5755 2.42209C66.5755 6.71761 66.5755 11.0131 66.5755 15.3086C66.5755 15.7574 66.5141 15.7037 66.9667 15.7037C68.8191 15.7037 70.6753 15.7037 72.5277 15.7037C72.6082 15.7037 72.6926 15.7075 72.7732 15.7037C72.8921 15.696 72.9419 15.7497 72.9342 15.8686C72.9304 15.93 72.9342 15.9913 72.9342 16.0527C72.9342 17.9473 72.9342 19.8419 72.9342 21.7404C72.9342 21.7826 72.9342 21.8209 72.9342 21.8631C72.9317 22.0114 72.8601 22.0881 72.7195 22.0933C72.6581 22.0933 72.5967 22.0933 72.5354 22.0933C68.2706 22.0933 64.0059 22.0933 59.7411 22.0933C59.277 22.0933 59.3422 22.1354 59.3422 21.7059C59.3422 18.5034 59.3422 15.2971 59.3422 12.0947Z" fill="#C7E8C5"/>
<path d="M7.82227 12.0186C7.82227 10.9255 7.82227 9.83628 7.82227 8.74323C7.82227 8.66269 7.82227 8.57831 7.82227 8.49777C7.82227 8.39805 7.85295 8.34436 7.96417 8.34436C8.68519 8.36354 9.40237 8.31751 10.1234 8.38271C10.6488 8.42873 11.1205 8.60516 11.5654 8.87363C12.0755 9.18045 12.4475 9.60617 12.7198 10.1278C13.2644 11.171 13.322 12.2717 12.9614 13.3609C12.5626 14.5498 11.7265 15.3361 10.4801 15.6237C10.2039 15.6889 9.90862 15.6966 9.62098 15.7043C9.10706 15.7158 8.59314 15.7081 8.07539 15.7043C7.8261 15.7043 7.82227 15.7043 7.82227 15.4473C7.82227 14.3044 7.82227 13.1615 7.82227 12.0186Z" fill="#6BAD3D"/>
</svg>
