<svg width="110" height="22" viewBox="0 0 110 22" fill="none" xmlns="http://www.w3.org/2000/svg">
<g clip-path="url(#clip0_360_158)">
<g clip-path="url(#clip1_360_158)">
<g clip-path="url(#clip2_360_158)">
<path d="M56.63 10.7C55.722 10.7 55.067 10.987 54.404 11.28V17.902C55.039 17.961 55.404 17.961 56.007 17.961C58.187 17.961 58.487 16.998 58.487 15.653V12.49C58.487 11.497 58.145 10.7 56.63 10.7ZM42.152 10.338C40.639 10.338 40.294 11.139 40.294 12.131V12.688H44.008V12.131C44.008 11.139 43.663 10.338 42.152 10.338ZM14.104 17.231C14.104 18.016 14.488 18.424 15.335 18.424C16.245 18.424 16.782 18.138 17.445 17.844V16.274H15.46C14.519 16.274 14.104 16.442 14.104 17.231ZM70.714 10.699C69.199 10.699 68.674 11.497 68.674 12.49V16.114C68.674 17.109 69.199 17.909 70.714 17.909C72.225 17.909 72.754 17.109 72.754 16.114V12.49C72.754 11.497 72.225 10.699 70.714 10.699ZM6.68 21.295H2.225V10.896H0V7.313H2.226V5.161C2.226 2.238 3.482 0.5 7.052 0.5H10.024V4.084H8.166C6.776 4.084 6.685 4.584 6.685 5.519L6.679 7.313H10.045L9.651 10.896H6.679L6.68 21.295ZM21.902 21.322H18.189L18.029 20.416C16.7377 21.1137 15.2917 21.4758 13.824 21.469C11.101 21.469 9.652 19.714 9.652 17.289C9.652 14.426 11.343 13.405 14.368 13.405H17.447V12.786C17.447 11.326 17.273 10.896 14.944 10.896H11.136L11.508 7.313H15.67C20.78 7.313 21.902 8.871 21.902 12.815V21.322ZM34.524 11.159C32.214 10.777 31.551 10.693 30.44 10.693C28.443 10.693 27.84 11.118 27.84 12.753V15.847C27.84 17.482 28.443 17.909 30.44 17.909C31.551 17.909 32.214 17.823 34.524 17.439V20.935C32.501 21.372 31.183 21.487 30.069 21.487C25.287 21.487 23.387 19.062 23.387 15.557V13.047C23.387 9.541 25.287 7.111 30.069 7.111C31.183 7.111 32.501 7.226 34.524 7.666V11.159ZM48.462 15.558H40.295V15.847C40.295 17.482 40.898 17.909 42.895 17.909C44.688 17.909 45.784 17.823 48.089 17.439V20.935C45.866 21.372 44.707 21.487 42.525 21.487C37.743 21.487 35.841 19.062 35.841 15.557V12.687C35.841 9.622 37.252 7.111 42.152 7.111C47.052 7.111 48.462 9.593 48.462 12.688V15.558ZM62.94 15.624C62.94 19.011 61.937 21.481 55.858 21.481C53.662 21.481 52.375 21.295 49.952 20.935V1.576L54.403 0.86V7.632C55.365 7.287 56.611 7.112 57.743 7.112C62.197 7.112 62.939 9.037 62.939 12.132L62.94 15.624ZM77.212 15.698C77.212 18.619 75.962 21.453 70.73 21.453C65.496 21.453 64.222 18.619 64.222 15.698V12.877C64.222 9.954 65.496 7.12 70.73 7.12C75.962 7.12 77.212 9.954 77.212 12.877V15.697V15.698ZM91.475 15.698C91.475 18.619 90.223 21.453 84.992 21.453C79.758 21.453 78.484 18.619 78.484 15.698V12.877C78.484 9.954 79.758 7.12 84.992 7.12C90.223 7.12 91.475 9.954 91.475 12.877V15.697V15.698ZM106.112 21.295H101.286L97.204 14.722V21.295H92.75V1.576L97.204 0.859V13.554L101.286 7.314H106.112L101.656 14.124L106.112 21.295ZM84.976 10.699C83.463 10.699 82.938 11.497 82.938 12.49V16.114C82.938 17.109 83.463 17.909 84.976 17.909C86.486 17.909 87.021 17.109 87.021 16.114V12.49C87.021 11.497 86.487 10.699 84.976 10.699ZM108.653 18.842C109.403 18.842 110 19.432 110 20.169C110 20.917 109.402 21.5 108.647 21.5C107.896 21.5 107.287 20.917 107.287 20.169C107.287 19.432 107.896 18.842 108.647 18.842H108.653ZM108.647 19.048C108.043 19.048 107.549 19.55 107.549 20.168C107.549 20.798 108.043 21.294 108.653 21.294C109.263 21.3 109.75 20.799 109.75 20.174C109.75 19.55 109.263 19.048 108.653 19.048H108.647ZM108.391 20.941H108.147V19.461C108.275 19.443 108.397 19.426 108.581 19.426C108.813 19.426 108.964 19.473 109.058 19.538C109.148 19.603 109.196 19.703 109.196 19.844C109.196 20.039 109.063 20.156 108.898 20.204V20.215C109.032 20.239 109.123 20.356 109.154 20.574C109.19 20.804 109.227 20.892 109.251 20.94H108.995C108.959 20.892 108.922 20.757 108.891 20.562C108.855 20.374 108.757 20.303 108.561 20.303H108.391V20.941ZM108.391 20.121H108.568C108.768 20.121 108.939 20.051 108.939 19.867C108.939 19.737 108.843 19.608 108.569 19.608C108.489 19.608 108.433 19.614 108.391 19.62V20.121Z" fill="#C7E8C5"/>
</g>
</g>
</g>
<defs>
<clipPath id="clip0_360_158">
<rect width="110" height="21" fill="white" transform="translate(0 0.5)"/>
</clipPath>
<clipPath id="clip1_360_158">
<rect width="110" height="21" fill="white" transform="translate(0 0.5)"/>
</clipPath>
<clipPath id="clip2_360_158">
<rect width="110" height="21" fill="white" transform="translate(0 0.5)"/>
</clipPath>
</defs>
</svg>
