<svg width="134" height="16" viewBox="0 0 134 16" fill="none" xmlns="http://www.w3.org/2000/svg">
<path d="M58.3178 9.0444C59.0544 9.48961 59.2907 10.1876 59.2852 11.0176C59.2742 12.3917 59.2852 13.7658 59.2852 15.1454C59.2852 15.5686 59.2797 15.5741 58.84 15.5741C57.9606 15.5741 57.0812 15.5741 56.2017 15.5741C55.795 15.5741 55.7895 15.5631 55.7895 15.1674C55.7895 13.7548 55.7895 12.3422 55.7895 10.9297C55.7895 10.7593 55.8005 10.5834 55.773 10.413C55.7125 10.0612 55.4817 9.83587 55.1189 9.7919C54.7946 9.75342 54.4704 9.74794 54.1461 9.74794C51.7551 9.74794 49.3697 9.74794 46.9787 9.74794C46.4621 9.74794 46.495 9.72045 46.495 10.2591C46.495 11.864 46.495 13.469 46.495 15.074C46.495 15.5741 46.495 15.5796 45.9949 15.5796C45.099 15.5796 44.1975 15.5796 43.3016 15.5796C42.8729 15.5796 42.8674 15.5686 42.8619 15.1399C42.8619 13.2107 42.8619 11.2814 42.8619 9.35219C42.8619 6.69743 42.8619 4.04266 42.8619 1.3879C42.8619 1.25598 42.8619 1.11857 42.8619 0.98666C42.8564 0.821767 42.9169 0.733824 43.0928 0.744816C43.1697 0.744816 43.2467 0.744816 43.3236 0.744816C47.1656 0.744816 51.0021 0.744819 54.8441 0.755812C55.5312 0.755812 56.2127 0.860242 56.8778 1.06361C58.2024 1.45935 59.0379 2.3168 59.3127 3.6799C59.5216 4.71873 59.5216 5.76854 59.4281 6.81836C59.3622 7.56037 59.0269 8.20345 58.5212 8.75859C58.4443 8.84103 58.3398 8.90148 58.3178 9.05538V9.0444Z" fill="#C7E8C5"/>
<path d="M102.245 8.11544C102.245 5.80695 102.245 3.49296 102.245 1.18447C102.245 0.750249 102.25 0.739258 102.673 0.739258C107.257 0.739258 111.847 0.739258 116.431 0.739258C116.849 0.739258 116.849 0.74475 116.854 1.18996C116.854 1.95396 116.854 2.71797 116.854 3.48197C116.854 4.11955 116.854 4.0426 116.299 4.0426C113.452 4.0426 110.605 4.0426 107.758 4.0426C107.279 4.0426 106.801 4.0426 106.323 4.0426C105.878 4.0426 105.867 4.04809 105.867 4.46582C105.861 5.02096 105.861 5.5761 105.867 6.12574C105.867 6.55446 105.878 6.55995 106.312 6.56545C108.186 6.56545 110.055 6.56545 111.929 6.56545C112.331 6.56545 112.732 6.58744 113.133 6.55996C113.452 6.53797 113.512 6.67539 113.507 6.9557C113.49 7.73619 113.507 8.52217 113.501 9.30266C113.501 9.73688 113.496 9.74787 113.067 9.74787C111.731 9.74787 110.39 9.74787 109.055 9.74787C108.137 9.74787 107.219 9.74787 106.301 9.74787C105.872 9.74787 105.867 9.75887 105.867 10.1986C105.867 10.7922 105.867 11.3803 105.867 11.9739C105.867 12.1828 105.933 12.2982 106.164 12.2817C106.295 12.2707 106.433 12.2817 106.565 12.2817C109.775 12.2817 112.985 12.2817 116.195 12.2817C116.348 12.2817 116.502 12.2872 116.651 12.2817C116.832 12.2762 116.937 12.3257 116.937 12.5346C116.931 13.4689 116.937 14.4088 116.937 15.3432C116.937 15.5191 116.854 15.5796 116.695 15.5796C116.563 15.5796 116.425 15.5796 116.293 15.5796C111.825 15.5796 107.351 15.5796 102.882 15.5796C102.157 15.5796 102.256 15.6455 102.256 14.9255C102.256 12.65 102.256 10.38 102.256 8.10445L102.245 8.11544Z" fill="#C7E8C5"/>
<path d="M89.3567 0.739258C91.1925 0.739258 93.0228 0.739258 94.8586 0.739258C95.4193 0.739258 95.9634 0.821705 96.4966 0.981101C97.8762 1.37684 98.8216 2.23978 99.3108 3.59739C99.5746 4.32291 99.712 5.07044 99.712 5.83993C99.723 8.93441 99.7175 12.0234 99.7175 15.1179C99.7175 15.5686 99.712 15.5741 99.2943 15.5796C98.3599 15.5796 97.42 15.5796 96.4856 15.5796C96.0898 15.5796 96.0789 15.5686 96.0789 15.1618C96.0789 13.0787 96.0789 11.001 96.0789 8.91791C96.0789 7.88458 96.0789 6.85675 96.0789 5.82343C96.0789 5.59258 96.0789 5.36173 96.0514 5.13638C95.9579 4.39436 95.5897 4.0426 94.8422 4.0371C92.2643 4.02611 89.6865 4.03161 87.1087 4.0371C86.7459 4.0371 86.7404 4.04809 86.7404 4.54277C86.7404 7.97803 86.7459 11.4188 86.7459 14.854C86.7459 15.662 86.8724 15.5851 86.0259 15.5906C85.185 15.5906 84.344 15.5906 83.503 15.5906C83.1073 15.5906 83.1018 15.5796 83.1018 15.1728C83.1018 10.4954 83.1018 5.81794 83.1018 1.14049C83.1018 0.750248 83.1128 0.739258 83.514 0.739258C85.4598 0.739258 87.411 0.739258 89.3567 0.739258Z" fill="#C7E8C5"/>
<path d="M9.17969 0.733936C11.6806 0.733936 14.1869 0.733936 16.6878 0.733936C16.8197 0.733936 16.9571 0.733936 17.089 0.733936C17.2539 0.72844 17.3254 0.799889 17.3254 0.970278C17.3254 1.90467 17.3254 2.84455 17.3254 3.77894C17.3254 3.97132 17.2484 4.05926 17.0506 4.04827C16.9186 4.04277 16.7812 4.04827 16.6493 4.04827C12.8293 4.04827 9.0038 4.04827 5.18379 4.04827C4.47475 4.04827 4.56819 3.97132 4.5627 4.64188C4.5627 5.17503 4.57369 5.71368 4.5627 6.24683C4.5572 6.49967 4.65614 6.57662 4.89798 6.57112C5.83237 6.56013 6.77226 6.57112 7.70665 6.57112C10.0976 6.57112 12.483 6.57112 14.874 6.57112C15.0279 6.57112 15.1818 6.57112 15.3302 6.57112C15.5006 6.57112 15.561 6.65357 15.561 6.81846C15.561 7.71438 15.561 8.61579 15.561 9.5117C15.561 9.68209 15.4841 9.75353 15.3192 9.75903C15.1653 9.75903 15.0114 9.75903 14.863 9.75903C11.6916 9.75903 8.52012 9.75903 5.34868 9.75903C5.23326 9.75903 5.11783 9.75903 5.00241 9.75903C4.57369 9.77002 4.56819 9.77003 4.56819 10.1988C4.56819 11.8202 4.56819 13.4471 4.56819 15.0686C4.56819 15.5742 4.56819 15.5742 4.08451 15.5797C3.20508 15.5797 2.32565 15.5797 1.44623 15.5797C0.940555 15.5797 0.935059 15.5797 0.935059 15.0851C0.935059 14.2661 0.935059 13.4416 0.935059 12.6227C0.935059 8.91809 0.935059 5.21351 0.935059 1.50343C0.935059 1.40999 0.935059 1.31105 0.935059 1.21761C0.940555 0.739427 0.940555 0.733936 1.44623 0.733936C4.02405 0.733936 6.60736 0.733936 9.18519 0.733936H9.17969Z" fill="#C7E8C5"/>
<path d="M68.1846 0.733941C70.2842 0.733941 72.3839 0.733941 74.4835 0.733941C74.9507 0.733941 74.9507 0.739435 74.9562 1.19564C74.9562 1.99811 74.9562 2.80059 74.9562 3.60307C74.9562 4.03179 74.9452 4.04277 74.511 4.04277C72.6587 4.04277 70.8064 4.04277 68.9541 4.04277C68.3385 4.04277 68.399 3.97132 68.399 4.58692C68.399 8.03866 68.399 11.4959 68.399 14.9476C68.399 15.5797 68.4869 15.5742 67.7889 15.5742C66.9699 15.5742 66.1454 15.5742 65.3265 15.5742C64.6944 15.5742 64.7658 15.6017 64.7658 15.0301C64.7658 12.4523 64.7658 9.87446 64.7658 7.30214C64.7658 6.40622 64.7658 5.51031 64.7658 4.6089C64.7658 3.97681 64.8483 4.04277 64.1722 4.04277C63.3917 4.04277 62.6057 4.04277 61.8252 4.04277C61.347 4.04277 61.3416 4.04277 61.3416 3.58657C61.3416 2.78409 61.3416 1.98162 61.3416 1.17915C61.3416 0.706457 61.3525 0.733941 61.7758 0.733941C63.4961 0.733941 65.211 0.733941 66.9314 0.733941C67.3491 0.733941 67.7724 0.733941 68.1901 0.733941H68.1846Z" fill="#C7E8C5"/>
<path d="M125.501 0.733831C127.6 0.733831 129.7 0.733831 131.8 0.733831C132.272 0.733831 132.272 0.733824 132.278 1.19003C132.278 1.9925 132.278 2.79498 132.278 3.59746C132.278 4.03167 132.272 4.03717 131.838 4.03717C130.024 4.03717 128.21 4.03717 126.397 4.03717C126.265 4.03717 126.127 4.04816 125.995 4.03717C125.765 4.02068 125.693 4.1361 125.704 4.34497C125.71 4.49887 125.704 4.65277 125.704 4.80117C125.704 8.18146 125.704 11.5563 125.704 14.9365C125.704 15.6401 125.765 15.5686 125.05 15.5686C124.27 15.5686 123.484 15.5686 122.703 15.5686C122 15.5686 122.087 15.6401 122.087 14.9695C122.087 12.1279 122.087 9.28075 122.087 6.43911C122.087 5.79053 122.087 5.14195 122.087 4.49337C122.087 4.02068 122.115 4.03717 121.609 4.03717C120.807 4.03717 120.004 4.03717 119.202 4.03717C118.619 4.03717 118.658 4.08114 118.658 3.46555C118.658 2.72353 118.658 1.97601 118.658 1.234C118.658 0.711839 118.608 0.72833 119.147 0.72833C120.977 0.72833 122.813 0.72833 124.643 0.72833C124.929 0.72833 125.215 0.72833 125.501 0.72833V0.733831Z" fill="#C7E8C5"/>
<path d="M80.375 8.13199C80.375 10.424 80.375 12.716 80.375 15.008C80.375 15.6456 80.4575 15.5741 79.7869 15.5796C78.9295 15.5796 78.0665 15.5796 77.2091 15.5796C76.7749 15.5796 76.7694 15.5741 76.7639 15.1399C76.7639 13.6889 76.7639 12.2378 76.7639 10.7868C76.7639 7.69229 76.7639 4.5978 76.7639 1.50332C76.7639 1.37141 76.7749 1.234 76.7639 1.10209C76.7419 0.843757 76.8079 0.728333 77.1047 0.73383C78.0775 0.750319 79.0559 0.750319 80.0288 0.73383C80.3036 0.73383 80.3915 0.810779 80.386 1.0856C80.3695 2.05846 80.3805 3.03132 80.3805 4.00968C80.3805 5.38379 80.3805 6.75789 80.3805 8.13749L80.375 8.13199Z" fill="#C7E8C5"/>
<path d="M21.9482 10.1218C21.0688 10.1218 20.1948 10.1108 19.3154 10.1218C19.0186 10.1218 18.9197 10.0284 18.9197 9.73159C18.9362 8.66529 18.9362 7.59899 18.9197 6.52719C18.9197 6.23039 19.0186 6.13144 19.3154 6.13693C21.0688 6.14793 22.8221 6.14793 24.581 6.13693C24.8833 6.13693 24.9767 6.23588 24.9712 6.52719C24.9602 7.59349 24.9602 8.65979 24.9712 9.73159C24.9712 10.0229 24.8833 10.1328 24.581 10.1273C23.7016 10.1108 22.8276 10.1218 21.9482 10.1218Z" fill="#C7E8C5"/>
<path d="M37.2443 6.14257C38.1017 6.14257 38.9646 6.15357 39.8221 6.14257C40.1244 6.13708 40.2178 6.24151 40.2123 6.53832C40.2013 7.61012 40.1958 8.67642 40.2123 9.74822C40.2123 10.056 40.0969 10.133 39.8111 10.133C38.0522 10.122 36.2989 10.122 34.54 10.133C34.2322 10.133 34.1498 10.0285 34.1553 9.73723C34.1663 8.66543 34.1718 7.59913 34.1553 6.52733C34.1553 6.22503 34.2597 6.13708 34.551 6.14257C35.4469 6.15906 36.3484 6.14808 37.2443 6.14808V6.14257Z" fill="#C7E8C5"/>
<path d="M29.5652 4.51541C28.7077 4.51541 27.8503 4.50442 26.9929 4.51541C26.707 4.51541 26.5916 4.44396 26.5971 4.13616C26.6136 3.06986 26.6136 2.00356 26.5971 0.931761C26.5971 0.640452 26.6851 0.530518 26.9874 0.530518C28.7022 0.54151 30.4171 0.54151 32.1375 0.530518C32.4288 0.530518 32.5387 0.62396 32.5332 0.920766C32.5223 2.00906 32.5223 3.09184 32.5332 4.18013C32.5332 4.42747 32.4453 4.50992 32.2035 4.50992C31.324 4.49893 30.4501 4.50992 29.5707 4.50992L29.5652 4.51541Z" fill="#C7E8C5"/>
<path d="M29.621 11.7542C30.462 11.7542 31.2974 11.7652 32.1384 11.7487C32.4352 11.7432 32.5341 11.8366 32.5286 12.1389C32.5122 13.2052 32.5122 14.2715 32.5286 15.3433C32.5286 15.6456 32.4242 15.7391 32.1329 15.7336C30.418 15.7226 28.7031 15.7226 26.9828 15.7336C26.6805 15.7336 26.587 15.6292 26.5925 15.3324C26.6035 14.266 26.609 13.1997 26.5925 12.1279C26.5925 11.8146 26.7024 11.7432 26.9883 11.7487C27.8677 11.7597 28.7416 11.7487 29.621 11.7487V11.7542Z" fill="#C7E8C5"/>
<path d="M37.1836 11.7542C38.063 11.7542 38.9369 11.7542 39.8163 11.7542C40.2121 11.7542 40.2506 11.7817 40.2011 12.1829C40.0637 13.3316 39.6679 14.365 38.794 15.1674C38.3873 15.5412 37.9311 15.7556 37.3484 15.7336C36.4141 15.7006 35.4797 15.7171 34.5453 15.7336C34.243 15.7336 34.155 15.6347 34.155 15.3378C34.1715 14.2715 34.1715 13.1997 34.155 12.1334C34.155 11.8256 34.265 11.7487 34.5508 11.7542C35.4302 11.7707 36.3041 11.7542 37.1836 11.7542Z" fill="#C7E8C5"/>
<path d="M21.9367 11.7542C22.7941 11.7542 23.6516 11.7542 24.509 11.7542C24.9542 11.7542 24.9597 11.7597 24.9652 12.1774C24.9652 13.2052 24.9652 14.233 24.9652 15.2609C24.9652 15.7061 24.9597 15.7171 24.5365 15.7171C23.5472 15.7171 22.5523 15.7116 21.5629 15.7171C21.0848 15.7171 20.722 15.4862 20.3922 15.2004C19.4688 14.3869 19.0676 13.3206 18.9357 12.1279C18.8972 11.7706 18.9357 11.7487 19.3094 11.7432C20.1833 11.7377 21.0628 11.7432 21.9367 11.7432V11.7542Z" fill="#C7E8C5"/>
<path d="M37.1616 4.5154C36.3041 4.5154 35.4467 4.5154 34.5892 4.5154C34.1715 4.5154 34.1605 4.50442 34.1605 4.12516C34.1605 3.05886 34.166 1.99255 34.155 0.926251C34.155 0.623949 34.254 0.536011 34.5508 0.536011C35.5236 0.5525 36.4965 0.541507 37.4639 0.536011C37.9311 0.536011 38.3103 0.744874 38.6511 1.02519C39.6405 1.83316 40.0472 2.93794 40.2066 4.16364C40.2451 4.44945 40.1131 4.5209 39.8493 4.5154C38.9534 4.50441 38.0575 4.5154 37.1616 4.5154Z" fill="#C7E8C5"/>
<path d="M21.9153 4.51544C21.0578 4.51544 20.2004 4.51544 19.3429 4.51544C18.9307 4.51544 18.8922 4.48246 18.9417 4.10321C19.0901 2.98195 19.4693 1.95962 20.3268 1.16813C20.772 0.755902 21.2887 0.514063 21.9262 0.536049C22.8002 0.563531 23.6796 0.536043 24.559 0.547036C24.9603 0.547036 24.9658 0.558034 24.9713 0.964768C24.9713 2.01458 24.9713 3.0644 24.9713 4.10871C24.9713 4.50446 24.9603 4.50995 24.5535 4.50995C23.6741 4.50995 22.8002 4.50995 21.9207 4.50995L21.9153 4.51544Z" fill="#C7E8C5"/>
<path d="M131.453 15.5577C130.425 15.5632 129.644 14.7827 129.644 13.7549C129.644 12.771 130.436 11.9795 131.425 11.9685C132.414 11.963 133.217 12.7435 133.233 13.7219C133.25 14.7497 132.475 15.5467 131.453 15.5577Z" fill="#C7E8C5"/>
<path d="M50.8863 4.04273C52.145 4.04273 53.4037 4.04273 54.6624 4.04273C54.8548 4.04273 55.0471 4.04274 55.234 4.08121C55.5693 4.15267 55.8001 4.41099 55.8221 4.76276C55.8441 5.10354 55.8441 5.44981 55.8221 5.79059C55.7947 6.18633 55.5858 6.41718 55.19 6.48314C54.9482 6.52711 54.6954 6.54361 54.4535 6.54361C51.9527 6.54911 49.4573 6.5546 46.9564 6.5546C46.5112 6.5546 46.5057 6.5491 46.5002 6.12588C46.4947 5.55425 46.5112 4.98262 46.4947 4.41099C46.4837 4.10869 46.5827 4.02625 46.8795 4.02625C48.2151 4.04273 49.5507 4.03175 50.8863 4.03175V4.04273Z" fill="#6BAD3D"/>
<path d="M133.004 13.7659C133.004 14.6508 132.339 15.3268 131.459 15.3378C130.552 15.3488 129.871 14.6618 129.882 13.7439C129.887 12.8644 130.574 12.1939 131.454 12.1994C132.333 12.2049 133.004 12.8864 133.004 13.7659Z" fill="#C7E8C5"/>
<path d="M130.771 13.7494C130.771 13.6944 130.766 13.634 130.771 13.579C130.81 13.3042 130.623 12.8975 130.87 12.7765C131.172 12.6281 131.585 12.6886 131.942 12.7655C132.228 12.8315 132.42 13.1833 132.244 13.4471C132.079 13.6944 132.189 13.8593 132.25 14.0572C132.261 14.0957 132.272 14.1342 132.272 14.1671C132.255 14.343 132.392 14.6398 132.206 14.6728C131.947 14.7223 132.008 14.42 131.98 14.2496C131.953 14.0957 131.958 13.9308 131.766 13.8978C131.541 13.8538 131.315 13.8373 131.095 13.9143C131.062 13.9253 131.046 14.0132 131.04 14.0627C131.029 14.1781 131.04 14.2935 131.035 14.4035C131.029 14.5079 131.068 14.6728 130.919 14.6783C130.716 14.6783 130.782 14.4914 130.777 14.376C130.766 14.1671 130.777 13.9583 130.777 13.7439L130.771 13.7494Z" fill="#C7E8C5"/>
<path d="M131.491 12.9745C131.662 12.9965 131.964 12.8975 132.003 13.2658C132.036 13.5296 131.871 13.6285 131.431 13.623C131.035 13.623 131.046 13.6066 131.03 13.2658C131.013 12.9305 131.222 12.9635 131.491 12.9745Z" fill="#C7E8C5"/>
</svg>
