<svg width="98" height="26" viewBox="0 0 98 26" fill="none" xmlns="http://www.w3.org/2000/svg">
<g clip-path="url(#clip0_360_166)">
<g clip-path="url(#clip1_360_166)">
<g clip-path="url(#clip2_360_166)">
<path d="M0 4.333H3.417V11.449H10.624V4.333H14.046V21.8H10.624V14.535H3.417V21.8H0V4.333ZM24.871 16.11V8.59H28.111V16.11C28.111 19.247 25.387 21.799 22.041 21.799C18.693 21.799 15.969 19.247 15.969 16.11V8.59H19.21V16.11C19.21 17.572 20.48 18.762 22.04 18.762C23.6 18.762 24.871 17.572 24.871 16.11ZM37.158 8.68C40.788 8.68 43.908 11.522 43.908 15.24C43.908 19.005 40.524 21.8 36.661 21.8C33.186 21.8 30.093 19.054 30.093 15.045V4.334H33.344V10.113C34.428 9.116 35.55 8.679 37.158 8.679V8.68ZM37.238 18.981C39.105 18.981 40.791 17.257 40.791 15.24C40.791 13.223 39.105 11.498 37.238 11.498C35.035 11.498 33.351 13.223 33.351 15.24C33.351 17.257 35.035 18.981 37.238 18.981ZM49.37 9.446C49.37 12.289 57.122 10.248 57.122 16.807C57.122 19.845 54.425 21.789 51.082 21.789C48.852 21.789 46.985 20.914 45.481 19.189L47.841 16.905C48.721 17.828 49.344 18.703 51.263 18.703C52.481 18.703 53.543 17.803 53.543 16.783C53.543 13.479 45.792 15.35 45.792 9.446C45.792 6.263 48.332 4.344 51.859 4.344C53.621 4.344 55.773 5.267 56.835 6.604L54.71 8.936C53.88 8.109 52.61 7.429 51.651 7.429C50.459 7.429 49.37 7.915 49.37 9.446ZM65.68 8.508C69.543 8.508 72.928 11.301 72.928 15.068C72.928 18.785 69.807 21.628 66.178 21.628C64.569 21.628 63.448 21.189 62.364 20.193V26H59.113V15.262C59.113 11.252 62.205 8.508 65.68 8.508ZM66.258 18.809C68.125 18.809 69.81 17.083 69.81 15.067C69.81 13.05 68.125 11.325 66.258 11.325C64.055 11.325 62.371 13.05 62.371 15.067C62.371 17.083 64.055 18.809 66.258 18.809ZM96.859 18.98C97.2397 18.9757 97.6203 18.9597 98 18.932L97.196 21.702C96.885 21.774 96.314 21.799 95.899 21.799C93.126 21.799 91.105 20.414 91.105 17.668V6.928L94.396 5.544V9.068H97.377V11.74H94.397V17.012C94.397 18.202 94.942 18.98 96.859 18.98ZM87.563 11.939C88.171 12.889 88.461 13.927 88.461 15.052V15.109C88.461 16.253 88.101 17.292 87.447 18.233C86.797 19.171 85.935 19.906 84.835 20.443C83.7973 20.9481 82.6571 21.2071 81.503 21.2H81.308C80.3088 21.2003 79.3184 21.0134 78.388 20.649C77.9539 20.4834 77.5361 20.2779 77.14 20.035L74.332 22.559C74.398 22.749 74.433 22.949 74.433 23.153C74.435 23.679 74.203 24.183 73.789 24.553C73.3591 24.9322 72.8042 25.1388 72.231 25.133C71.6578 25.139 71.1028 24.9323 70.673 24.553C70.4721 24.3789 70.3106 24.164 70.1992 23.9226C70.0878 23.6812 70.0291 23.4188 70.027 23.153C70.0288 22.8872 70.0873 22.6249 70.1985 22.3834C70.3098 22.142 70.4712 21.9271 70.672 21.753C71.277 21.206 72.182 21.028 72.986 21.297L75.703 18.849C75.2565 18.3625 74.8978 17.8022 74.643 17.193C74.3511 16.4905 74.1989 15.7378 74.195 14.977V14.744C74.195 13.629 74.595 12.606 75.248 11.677C75.5787 11.2215 75.9681 10.8116 76.406 10.458L68.22 5.157L67.624 4.75C67.1752 4.99481 66.6722 5.12338 66.161 5.124C64.586 5.124 63.311 3.977 63.311 2.562C63.31 1.147 64.584 0 66.159 0C67.734 0 69.009 1.147 69.009 2.562C69.009 2.798 68.957 3.022 68.889 3.238C71.713 5.163 76.539 8.459 78.01 9.464C78.731 9.136 79.52 8.923 80.28 8.824V5.78C79.33 5.418 78.774 4.614 78.774 3.677C78.774 2.399 79.934 1.364 81.354 1.364C82.774 1.364 83.914 2.399 83.914 3.677C83.914 4.614 83.324 5.417 82.374 5.78V8.824C83.2859 8.93178 84.1701 9.20707 84.982 9.636C86.072 10.214 86.942 10.982 87.562 11.94L87.563 11.939ZM84.132 17.234C84.796 16.578 85.127 15.855 85.127 15.075C85.127 14.958 85.122 14.835 85.111 14.716C85.044 14.1408 84.8301 13.5926 84.49 13.124C84.13 12.6364 83.6534 12.2469 83.104 11.991C82.5497 11.7419 81.9476 11.6173 81.34 11.626H81.276C80.591 11.626 79.976 11.793 79.4 12.134C78.8391 12.4512 78.3718 12.9107 78.045 13.466C77.74 13.974 77.619 14.513 77.619 15.081V15.256C77.619 15.834 77.832 16.378 78.224 16.877C78.604 17.385 79.068 17.787 79.679 18.068C80.196 18.3219 80.7631 18.4572 81.339 18.464H81.503C82.493 18.464 83.37 17.995 84.132 17.234Z" fill="#C7E8C5"/>
</g>
</g>
</g>
<defs>
<clipPath id="clip0_360_166">
<rect width="98" height="26" fill="white"/>
</clipPath>
<clipPath id="clip1_360_166">
<rect width="98" height="26" fill="white"/>
</clipPath>
<clipPath id="clip2_360_166">
<rect width="98" height="26" fill="white"/>
</clipPath>
</defs>
</svg>
