<svg width="109" height="24" viewBox="0 0 109 24" fill="none" xmlns="http://www.w3.org/2000/svg">
<path d="M39.8735 8.1279H37.3945V19.9696H39.8735V15.1684H45.3151V19.9696H47.7157V8.1279H45.3151V12.9291H39.8735V8.1279ZM58.9169 14.9288C58.9169 16.8502 57.9585 17.8915 56.1984 17.8915C54.4383 17.8915 53.4799 16.8502 53.4799 14.8505V8.1279H51.0793V14.9288C51.0793 18.2878 52.9177 20.2092 56.1984 20.2092C59.479 20.2092 61.3175 18.2878 61.3175 14.8459V8.12328H58.9169V14.9242V14.9288ZM82.1211 8.1279L79.4026 16.2881L76.7624 8.1279H74.2005L78.3612 19.9696H80.3609L83.0795 12.2057L85.7196 19.9696H87.8023L91.8847 8.1279H89.4058L86.7656 16.2881L84.0471 8.1279H82.1257H82.1211ZM100.607 12.6895H96.2067V10.2889H102.607V8.1279H93.8061V19.9696H102.846V17.8086H96.2067V14.8459H100.607V12.6849V12.6895ZM105.726 8.1279H108.127V19.9696H105.726V8.1279ZM71.4774 17.4907L72.5187 19.9696H75.0806L69.8785 8.1279L69.8002 8.04956H67.7175L62.5155 19.9742H64.9944L66.0357 17.6519L66.1141 17.4907H71.4774ZM68.7589 11.0906L70.4407 15.0901L70.519 15.3297H66.8375L66.9158 15.0901L68.7543 11.0906H68.7589Z" fill="#C7E8C5"/>
<path d="M13.7063 18.7716C13.7063 18.7716 13.7846 18.6932 13.7063 18.6932C10.0247 10.6897 4.98397 4.52931 4.98397 4.52931C4.98397 4.52931 2.26545 7.09116 2.42211 9.73134C2.50044 11.7311 4.02097 12.8507 4.02097 12.8507C6.42156 15.173 12.1811 18.1311 13.545 18.7716H13.7063ZM12.7479 20.7713C12.7479 20.693 12.5866 20.693 12.5866 20.693L2.98425 21.0109C4.02558 22.8494 5.7857 24.2915 7.62416 23.8907C8.90509 23.5728 11.7849 21.5684 12.6649 20.928C12.8262 20.7667 12.7433 20.7667 12.7433 20.7667M12.9045 19.8866C12.9829 19.8083 12.9045 19.7254 12.9045 19.7254C8.66549 16.8456 0.500719 12.5236 0.500719 12.5236C-0.218076 14.8459 0.740317 16.6843 0.740317 16.6843C1.78165 18.9236 3.78137 19.5641 3.78137 19.5641C4.66143 19.965 5.61983 19.965 5.61983 19.965H12.8216C12.8999 19.965 12.8999 19.8866 12.8999 19.8866M13.5404 0.363981C13.1395 0.363981 12.0199 0.68191 12.0199 0.68191C9.45801 1.32237 8.90048 3.64463 8.90048 3.64463C8.42128 5.08683 8.90048 6.68569 8.90048 6.68569C9.78054 10.4455 13.9413 16.6889 14.8213 17.9698L14.8996 18.0482C14.978 18.0482 14.978 17.9698 14.978 17.9698C16.4202 3.96717 13.5358 0.363981 13.5358 0.363981M16.7381 17.9698C16.8164 17.9698 16.8994 17.8915 16.8994 17.8915C17.8578 16.5323 21.9401 10.3718 22.8202 6.60735C22.8202 6.60735 23.2994 4.76891 22.8202 3.56631C22.8202 3.56631 22.1797 1.24404 19.6179 0.603574C19.6179 0.603574 18.8991 0.442305 18.0974 0.285645C18.0974 0.285645 15.2176 3.96716 16.6552 17.8086C16.6552 17.9698 16.7335 17.9698 16.7335 17.9698M18.9728 20.6884C18.9728 20.6884 18.8945 20.6884 18.8945 20.7667V20.928C19.8529 21.5684 22.576 23.5681 23.9353 23.8907C23.9353 23.8907 26.4142 24.7707 28.5752 21.0109L18.9728 20.693V20.6884ZM31.2154 12.4453C31.2154 12.4453 23.0552 16.8456 18.8116 19.7254C18.8116 19.7254 18.7332 19.8037 18.7332 19.8866C18.7332 19.8866 18.7332 19.965 18.8116 19.965H26.1746C26.1746 19.965 26.8934 19.965 27.8564 19.5641C27.8564 19.5641 29.8561 18.9236 30.9758 16.6014C30.9758 16.523 31.9342 14.68 31.2154 12.4406M18.0098 18.7624C18.0098 18.7624 18.0881 18.8407 18.1711 18.7624C19.5303 18.0436 25.2945 15.1592 27.6951 12.8415C27.6951 12.8415 29.2156 11.6389 29.294 9.72213C29.4552 7.00361 26.7321 4.52008 26.7321 4.52008C26.7321 4.52008 21.6913 10.5239 18.0098 18.6057C18.0098 18.6057 17.9315 18.684 18.0098 18.767" fill="#C7E8C5"/>
</svg>
