<svg width="70" height="26" viewBox="0 0 70 26" fill="none" xmlns="http://www.w3.org/2000/svg">
<g clip-path="url(#clip0_360_162)">
<g clip-path="url(#clip1_360_162)">
<g clip-path="url(#clip2_360_162)">
<path d="M10.278 0.5C10.446 0.577 10.552 0.737 10.688 0.864C10.906 1.052 11.068 1.3 11.282 1.494C11.545 1.741 11.713 2.056 11.932 2.337C12.313 2.906 12.65 3.513 12.824 4.175C13.004 4.627 13.031 5.118 13.02 5.604C13.031 6.045 12.908 6.481 12.706 6.878C12.358 7.48 11.73 7.882 11.074 8.098C10.255 8.291 9.35198 8.324 8.56198 7.982C8.27598 7.827 7.94998 7.722 7.72098 7.48C7.18798 7.05 6.87898 6.349 6.98098 5.67C7.13698 4.462 7.87098 3.424 8.65698 2.53C8.72998 2.663 8.66798 2.817 8.71898 2.955C8.78598 3.248 8.89298 3.557 9.11698 3.766C9.39198 3.518 9.68298 3.27 9.91898 2.983C10.132 2.673 10.306 2.332 10.379 1.968C10.396 1.504 10.44 1.018 10.261 0.578L10.278 0.5ZM0.00397656 6.012C1.31598 6.023 2.63398 6.001 3.94698 6.023C3.94698 7.309 3.95698 8.594 3.94098 9.88C4.87098 9.896 5.80298 9.885 6.73898 9.885C6.74998 9.985 6.75598 10.084 6.75598 10.183C6.74498 11.243 6.76198 12.296 6.74498 13.356C5.80798 13.366 4.87698 13.356 3.94098 13.361C3.95798 15.265 3.93498 17.163 3.95198 19.066C3.98598 19.232 4.00798 19.397 4.00198 19.568C3.98598 19.723 4.08098 19.85 4.11498 19.993C4.18798 20.324 4.37298 20.623 4.58498 20.882C4.90269 21.1917 5.30127 21.4055 5.73498 21.499C6.12798 21.56 6.51998 21.593 6.91898 21.566C6.94122 21.6317 6.95237 21.7006 6.95198 21.77C6.94698 22.763 6.94698 23.756 6.95198 24.744C6.95198 24.882 6.92398 25.02 6.90198 25.152C6.33498 25.152 5.76898 25.191 5.20198 25.152C4.86598 25.08 4.50698 25.113 4.18198 24.97C3.27898 24.76 2.41598 24.319 1.77098 23.651C0.822977 22.751 0.312977 21.483 0.104977 20.225C0.0489766 20.087 0.0829766 19.927 0.0599766 19.778C-0.0180234 19.475 0.0149766 19.154 0.00397656 18.846C-2.34377e-05 14.57 -2.34377e-05 10.288 0.00397656 6.012ZM19.16 9.587C19.396 9.527 19.648 9.571 19.884 9.521C20.377 9.461 20.865 9.538 21.353 9.554C21.695 9.549 22.026 9.648 22.363 9.714C23.613 10.012 24.796 10.669 25.654 11.629C25.806 11.877 26.036 12.059 26.181 12.313C26.546 12.881 26.787 13.516 26.994 14.156C27.124 14.625 27.191 15.11 27.252 15.59C27.28 16.655 27.264 17.725 27.269 18.79C27.264 20.915 27.275 23.039 27.264 25.163C25.951 25.146 24.644 25.158 23.338 25.152C23.32 25.1408 23.3033 25.1277 23.288 25.113C23.282 22.14 23.288 19.166 23.288 16.197C23.293 15.833 23.226 15.48 23.148 15.132C23.008 14.779 22.828 14.442 22.581 14.156C22.435 13.985 22.233 13.874 22.071 13.726C21.818 13.56 21.521 13.483 21.235 13.406C21.084 13.394 20.932 13.406 20.792 13.356C20.192 13.317 19.581 13.366 19.02 13.593C18.61 13.786 18.23 14.051 17.96 14.421C17.517 14.939 17.371 15.645 17.383 16.308C17.383 19.254 17.388 22.206 17.383 25.152C16.059 25.163 14.736 25.146 13.413 25.163C13.39 22.322 13.413 19.475 13.401 16.633C13.407 16.269 13.396 15.905 13.424 15.541C13.497 15.358 13.446 15.16 13.502 14.983C13.603 14.31 13.861 13.67 14.147 13.058C14.427 12.522 14.764 12.009 15.201 11.585C15.543 11.242 15.897 10.884 16.328 10.647C17.164 10.073 18.151 9.725 19.16 9.587ZM66.154 9.554C66.642 9.544 67.124 9.449 67.612 9.527C67.875 9.56 68.144 9.554 68.408 9.565C68.458 10.045 68.419 10.531 68.43 11.011V12.941C68.43 13.063 68.447 13.191 68.397 13.306C68.267 13.212 68.094 13.246 67.948 13.206C67.354 13.157 66.742 13.185 66.182 13.406C65.5067 13.6329 64.9431 14.1084 64.606 14.736C64.511 14.851 64.511 15.016 64.404 15.126C64.23 15.745 64.219 16.39 64.23 17.025C64.224 19.739 64.247 22.448 64.219 25.163C62.912 25.147 61.6 25.163 60.288 25.152C60.277 25.141 60.26 25.119 60.248 25.108V16.252C60.232 15.882 60.316 15.524 60.31 15.16C60.4 14.983 60.378 14.78 60.434 14.597C60.714 13.201 61.46 11.883 62.593 10.983C62.811 10.74 63.125 10.625 63.383 10.431C64.219 9.929 65.19 9.687 66.154 9.554ZM8.02898 9.88C9.35198 9.902 10.676 9.874 11.999 9.89C11.999 14.94 11.994 19.982 11.999 25.025C11.999 25.075 11.999 25.175 11.921 25.158H8.03998C8.00598 24.324 8.03398 23.486 8.02198 22.653C8.02798 18.399 8.02198 14.139 8.02798 9.88H8.02898ZM49.555 20.12C49.891 19.993 50.216 19.828 50.558 19.712C51.052 19.524 51.534 19.298 52.028 19.11C53.048 18.647 54.103 18.26 55.134 17.825C55.381 17.692 55.661 17.632 55.903 17.488C56.177 17.383 56.453 17.29 56.721 17.168C56.957 17.03 57.226 16.975 57.467 16.854C57.787 16.727 58.095 16.584 58.421 16.468C58.751 16.285 59.121 16.198 59.452 16.021C59.542 15.96 59.688 15.976 59.744 15.871C59.649 15.739 59.699 15.574 59.649 15.431C59.576 15.171 59.503 14.917 59.441 14.663C59.1945 13.8921 58.8192 13.1685 58.331 12.523C57.731 11.667 56.906 10.978 55.992 10.47C55.392 10.111 54.719 9.907 54.046 9.73C53.631 9.681 53.233 9.538 52.813 9.543C52.431 9.493 52.039 9.471 51.663 9.538C50.996 9.548 50.357 9.708 49.723 9.891C48.618 10.271 47.569 10.851 46.723 11.651C46.47 11.883 46.263 12.153 46.022 12.391C45.641 12.8583 45.3136 13.3668 45.046 13.907C44.681 14.719 44.334 15.568 44.294 16.467C44.171 16.897 44.21 17.35 44.204 17.792C44.194 18.073 44.238 18.349 44.294 18.619C44.278 18.906 44.39 19.171 44.429 19.447C44.524 20.032 44.788 20.572 45.029 21.113C45.691 22.448 46.734 23.607 48.04 24.363C48.898 24.882 49.852 25.251 50.85 25.389C51.6662 25.5194 52.4967 25.5343 53.317 25.433C53.597 25.455 53.867 25.334 54.147 25.318C55.342 25.042 56.514 24.545 57.417 23.712C57.686 23.502 57.938 23.254 58.151 22.989C58.511 22.63 58.768 22.195 59.026 21.764C59.2746 21.3046 59.4741 20.8203 59.621 20.319C59.542 20.286 59.452 20.297 59.374 20.297C58.062 20.302 56.755 20.291 55.443 20.297C55.32 20.297 55.32 20.462 55.241 20.528C55.017 20.848 54.731 21.118 54.428 21.373C53.99 21.682 53.474 21.847 52.964 21.996C52.83 22.013 52.701 22.007 52.577 22.056C52.263 22.079 51.944 22.068 51.624 22.062C51.2693 21.9996 50.9189 21.9147 50.575 21.808C50.048 21.544 49.532 21.24 49.135 20.81C49.033 20.688 48.871 20.595 48.837 20.435C48.927 20.395 49.011 20.335 49.112 20.319C49.274 20.291 49.398 20.164 49.555 20.12ZM47.94 17.328C47.861 17.135 47.934 16.908 47.923 16.705C48.013 16.423 48.041 16.125 48.147 15.844C48.417 15.221 48.747 14.608 49.229 14.117C49.454 13.935 49.644 13.714 49.902 13.577C50.092 13.477 50.278 13.367 50.474 13.278C50.839 13.174 51.192 13.008 51.574 13.008C51.921 12.925 52.28 12.969 52.634 12.975C53.559 13.102 54.49 13.494 55.089 14.216C55.151 14.36 54.944 14.371 54.859 14.426C54.495 14.625 54.086 14.724 53.721 14.928C53.559 14.956 53.418 15.055 53.261 15.105C52.101 15.601 50.917 16.037 49.768 16.555C49.151 16.793 48.54 17.047 47.94 17.328ZM43.762 3.138C42.534 3.126 41.306 3.138 40.077 3.132C39.987 3.142 39.881 3.104 39.808 3.17C39.819 5.764 39.808 8.362 39.814 10.956C39.808 11.049 39.831 11.143 39.791 11.231C39.679 11.215 39.623 11.111 39.539 11.049C38.973 10.569 38.339 10.161 37.632 9.924C37.156 9.742 36.657 9.648 36.152 9.56C35.58 9.549 35.002 9.532 34.425 9.565C34.363 9.582 34.307 9.598 34.245 9.604C32.961 9.78 31.761 10.371 30.775 11.182C30.225 11.689 29.675 12.219 29.288 12.859C28.834 13.494 28.542 14.222 28.262 14.939C28.132 15.392 28.004 15.839 27.948 16.302C27.841 17.014 27.886 17.742 27.898 18.459C27.925 18.647 27.988 18.823 27.993 19.011C28.093 19.618 28.273 20.214 28.52 20.782C28.727 21.328 29.064 21.825 29.372 22.322C29.591 22.597 29.804 22.884 30.068 23.127C30.46 23.507 30.847 23.922 31.34 24.187C31.924 24.622 32.613 24.882 33.286 25.135C33.533 25.18 33.763 25.318 34.016 25.323C34.228 25.34 34.425 25.439 34.638 25.428C34.75 25.417 34.851 25.494 34.968 25.483C35.513 25.5 36.062 25.5 36.606 25.483C36.696 25.483 36.786 25.444 36.881 25.439C37.257 25.444 37.604 25.301 37.969 25.251C38.445 25.081 38.956 24.97 39.399 24.716C40.055 24.418 40.649 23.999 41.182 23.524C41.8513 22.9442 42.4015 22.2398 42.802 21.45C42.977 21.102 43.172 20.766 43.285 20.39C43.498 19.872 43.593 19.32 43.666 18.774C43.79 18.294 43.75 17.792 43.762 17.295V3.138ZM39.775 18.078C39.741 18.664 39.517 19.221 39.253 19.745C38.81 20.567 38.064 21.196 37.218 21.593C37.088 21.659 36.92 21.654 36.831 21.775C36.674 21.775 36.517 21.781 36.365 21.836C35.883 21.847 35.384 21.891 34.913 21.759C34.711 21.665 34.487 21.626 34.285 21.522C34.032 21.384 33.746 21.29 33.539 21.08C33.146 20.81 32.843 20.44 32.569 20.06C32.349 19.69 32.131 19.31 32.03 18.89C31.918 18.669 31.93 18.42 31.868 18.189C31.851 17.599 31.818 16.992 31.958 16.418C32.019 16.236 32.058 16.043 32.126 15.861C32.288 15.568 32.389 15.243 32.602 14.978C32.714 14.746 32.911 14.575 33.068 14.376C33.488 13.902 34.066 13.598 34.649 13.361C34.868 13.311 35.081 13.201 35.311 13.201C35.776 13.085 36.259 13.179 36.718 13.262C37.324 13.477 37.924 13.775 38.395 14.217C38.569 14.377 38.698 14.575 38.872 14.735C39.5928 15.6916 39.9163 16.8896 39.775 18.079V18.078ZM66.12 23.221H67.59C67.595 23.331 67.595 23.441 67.59 23.551C67.421 23.574 67.253 23.546 67.09 23.568C67.068 24.065 67.09 24.556 67.079 25.053C66.9295 25.0427 66.7796 25.0407 66.63 25.047C66.614 24.655 66.62 24.258 66.625 23.867C66.625 23.762 66.647 23.64 66.552 23.568C66.406 23.546 66.26 23.574 66.114 23.552C66.109 23.442 66.109 23.332 66.12 23.221ZM67.858 23.226C68.066 23.221 68.273 23.21 68.481 23.237C68.47 23.397 68.604 23.507 68.644 23.657C68.7 23.844 68.784 24.021 68.84 24.209C68.885 24.291 68.963 24.363 68.935 24.468C69.047 24.038 69.221 23.629 69.395 23.226C69.5949 23.2177 69.7951 23.2177 69.995 23.226C70.006 23.816 69.995 24.418 69.995 25.009C69.86 25.019 69.725 25.019 69.585 25.009C69.591 24.595 69.585 24.181 69.597 23.773C69.547 23.817 69.496 23.855 69.457 23.911C69.384 24.286 69.187 24.628 69.092 25.003C68.9827 25.0187 68.8718 25.0208 68.762 25.009C68.728 24.799 68.576 24.628 68.576 24.413C68.425 24.231 68.419 23.971 68.301 23.767C68.223 23.917 68.285 24.093 68.268 24.253C68.245 24.512 68.296 24.777 68.245 25.036C68.111 25.036 67.959 25.08 67.853 24.986C67.87 24.402 67.853 23.816 67.858 23.226Z" fill="#C7E8C5"/>
</g>
</g>
</g>
<defs>
<clipPath id="clip0_360_162">
<rect width="70" height="25" fill="white" transform="translate(0 0.5)"/>
</clipPath>
<clipPath id="clip1_360_162">
<rect width="70" height="25" fill="white" transform="translate(0 0.5)"/>
</clipPath>
<clipPath id="clip2_360_162">
<rect width="70" height="25" fill="white" transform="translate(0 0.5)"/>
</clipPath>
</defs>
</svg>
